<svg width="24" height="24" viewBox="0 0 24 24" fill="none" xmlns="http://www.w3.org/2000/svg">
<path d="M9.69691 9.0295V4H14.4031V9.0295C14.4031 9.58574 14.5763 10.1282 14.8987 10.5814L19.5958 17.1852C20.2263 18.0716 19.5926 19.3 18.5049 19.3H5.59513C4.50743 19.3 3.87372 18.0716 4.50417 17.1852L9.20127 10.5814C9.52368 10.1282 9.69691 9.58574 9.69691 9.0295Z" stroke="black" stroke-width="1.48233"/>
<path d="M16.5326 13.8073H7.58711C7.08314 13.8073 6.61867 14.0801 6.37328 14.5203L5.18879 16.6451C4.67242 17.5714 5.34211 18.7115 6.40262 18.7115H17.7775C18.8512 18.7115 19.5193 17.5457 18.9765 16.6193L17.7317 14.4945C17.4823 14.0688 17.026 13.8073 16.5326 13.8073Z" fill="black" stroke="black" stroke-width="1.33878" stroke-linecap="round"/>
<path d="M7.88515 4H16.027" stroke="black" stroke-width="1.48233" stroke-linecap="round"/>
</svg>
