<svg width="16" height="21" viewBox="0 0 16 21" fill="none" xmlns="http://www.w3.org/2000/svg">
<path fill-rule="evenodd" clip-rule="evenodd" d="M13 7H11.1H10H4.9V5C4.9 3.28999 6.29 1.89999 8 1.89999C9.36023 1.89999 10.518 2.77951 10.9347 4H12.8998C12.4362 1.71866 10.4176 0 8 0C5.24 0 3 2.24001 3 5V7H2C0.900002 7 0 7.89999 0 9V19C0 20.1 0.900002 21 2 21H14C15.1 21 16 20.1 16 19V9C16 7.89999 15.1 7 14 7H13ZM6 14C6 15.1 6.9 16 8 16C9.1 16 10 15.1 10 14C10 12.9 9.1 12 8 12C6.9 12 6 12.9 6 14Z" fill="#F4E971"/>
</svg>
