<svg width="24" height="24" viewBox="0 0 24 24" fill="none" xmlns="http://www.w3.org/2000/svg">
<path d="M17.3591 12.6256C17.3368 10.0966 19.3891 8.88243 19.4819 8.82324C18.3271 7.10406 16.5298 6.86854 15.8886 6.84083C14.3599 6.6834 12.9043 7.75646 12.1294 7.75646C11.3546 7.75646 10.1564 6.8635 8.88886 6.88869C7.22031 6.91388 5.68419 7.87486 4.82516 9.39378C3.09348 12.4505 4.38327 16.9808 6.06915 19.462C6.89476 20.6749 7.87757 22.0414 9.16984 21.991C10.4151 21.9406 10.8854 21.1724 12.3881 21.1724C13.8908 21.1724 14.3141 21.991 15.6299 21.9671C16.968 21.9406 17.8171 20.7278 18.6365 19.5111C19.5822 18.103 19.9734 16.7403 19.9956 16.6685C19.9659 16.6559 17.3864 15.6496 17.3591 12.6256" fill="black"/>
<path d="M14.8872 5.19895C15.5729 4.35384 16.0359 3.17874 15.9083 2.00748C14.9205 2.04782 13.7249 2.67753 13.0156 3.52264C12.3806 4.26954 11.8236 5.466 11.9745 6.61342C13.0762 6.70032 14.2013 6.04281 14.8872 5.19895" fill="black"/>
</svg>
