<svg width="24" height="24" viewBox="0 0 24 24" fill="none" xmlns="http://www.w3.org/2000/svg">
<path d="M12.58 10.9C10.31 10.31 9.58001 9.7 9.58001 8.75C9.58001 7.66 10.59 6.9 12.28 6.9C14.06 6.9 14.72 7.75 14.78 9H16.99C16.92 7.28 15.87 5.7 13.78 5.19V3H10.78V5.16C8.84001 5.58 7.28001 6.84 7.28001 8.77C7.28001 11.08 9.19001 12.23 11.98 12.9C14.48 13.5 14.98 14.38 14.98 15.31C14.98 16 14.49 17.1 12.28 17.1C10.22 17.1 9.41001 16.18 9.30001 15H7.10001C7.22001 17.19 8.86001 18.42 10.78 18.83V21H13.78V18.85C15.73 18.48 17.28 17.35 17.28 15.3C17.28 12.46 14.85 11.49 12.58 10.9Z" fill="black"/>
</svg>
